<?xml version="1.0" encoding="UTF-8"?>
<!DOCTYPE svg PUBLIC "-//W3C//DTD SVG 1.1//EN" "http://www.w3.org/Graphics/SVG/1.1/DTD/svg11.dtd">
<svg xmlns="http://www.w3.org/2000/svg" version="1.1" width="64px" height="64px" style="shape-rendering:geometricPrecision; text-rendering:geometricPrecision; image-rendering:optimizeQuality; fill-rule:evenodd; clip-rule:evenodd" xmlns:xlink="http://www.w3.org/1999/xlink">
<g><path style="opacity:0.778" fill="#228ae6" d="M 63.5,4.5 C 63.5,19.8333 63.5,35.1667 63.5,50.5C 61.5214,52.1675 59.188,52.8342 56.5,52.5C 57.4534,61.3568 54.7867,62.6902 48.5,56.5C 46.0476,58.3929 43.3809,59.7263 40.5,60.5C 40.5,57.8333 40.5,55.1667 40.5,52.5C 27.4957,52.6666 14.4957,52.4999 1.5,52C 0.955796,51.2828 0.28913,50.7828 -0.5,50.5C -0.5,35.1667 -0.5,19.8333 -0.5,4.5C 0.28913,4.21719 0.955796,3.71719 1.5,3C 21.5,2.33333 41.5,2.33333 61.5,3C 62.0442,3.71719 62.7109,4.21719 63.5,4.5 Z M 2.5,5.5 C 21.8448,5.16706 41.1782,5.5004 60.5,6.5C 61.6484,20.1214 61.8151,33.7881 61,47.5C 59.951,49.1066 58.451,49.7733 56.5,49.5C 58.2056,44.6472 58.7056,39.6472 58,34.5C 56.0649,30.1981 52.7316,28.1981 48,28.5C 38.9814,29.5083 35.648,34.5083 38,43.5C 39.5588,45.2166 40.3921,47.2166 40.5,49.5C 27.8158,49.8324 15.1492,49.4991 2.5,48.5C 1.18333,34.1668 1.18333,19.8334 2.5,5.5 Z M 45.5,31.5 C 54.55,31.7221 57.3833,36.0555 54,44.5C 48.9632,48.7151 44.6299,48.0485 41,42.5C 39.3926,37.4383 40.8926,33.7716 45.5,31.5 Z M 47.5,36.5 C 51.0164,38.1183 51.1831,39.785 48,41.5C 44.927,40.2516 44.7603,38.585 47.5,36.5 Z M 43.5,49.5 C 46.8094,50.6267 50.1427,50.6267 53.5,49.5C 53.6621,51.5273 53.4955,53.5273 53,55.5C 51.414,54.624 49.914,53.624 48.5,52.5C 47.086,53.624 45.586,54.624 44,55.5C 43.5045,53.5273 43.3379,51.5273 43.5,49.5 Z"/></g>
<g><path style="opacity:0.668" fill="#228be6" d="M 6.5,13.5 C 23.5,13.5 40.5,13.5 57.5,13.5C 57.5,14.5 57.5,15.5 57.5,16.5C 40.5,16.5 23.5,16.5 6.5,16.5C 6.5,15.5 6.5,14.5 6.5,13.5 Z"/></g>
<g><path style="opacity:0.668" fill="#228be6" d="M 6.5,22.5 C 23.5,22.5 40.5,22.5 57.5,22.5C 57.5,23.5 57.5,24.5 57.5,25.5C 40.5,25.5 23.5,25.5 6.5,25.5C 6.5,24.5 6.5,23.5 6.5,22.5 Z"/></g>
<g><path style="opacity:0.652" fill="#218ae5" d="M 6.5,30.5 C 15.3362,30.0314 24.0028,30.5314 32.5,32C 24.0028,33.4686 15.3362,33.9686 6.5,33.5C 6.5,32.5 6.5,31.5 6.5,30.5 Z"/></g>
<g><path style="opacity:0.755" fill="#228ae6" d="M 46.5,33.5 C 53.9854,34.8052 55.3187,38.3052 50.5,44C 45.1597,44.9888 42.6597,42.8222 43,37.5C 43.6897,35.6498 44.8564,34.3164 46.5,33.5 Z M 47.5,36.5 C 44.7603,38.585 44.927,40.2516 48,41.5C 51.1831,39.785 51.0164,38.1183 47.5,36.5 Z"/></g>
<g><path style="opacity:0.647" fill="#218ae5" d="M 6.5,39.5 C 9.51838,39.3354 12.5184,39.502 15.5,40C 15.9574,40.414 16.2907,40.914 16.5,41.5C 13.2317,42.487 9.89838,42.8204 6.5,42.5C 6.5,41.5 6.5,40.5 6.5,39.5 Z"/></g>
<g><path style="opacity:0.649" fill="#228be6" d="M 19.5,39.5 C 24.032,39.0692 28.3654,39.5692 32.5,41C 28.3654,42.4308 24.032,42.9308 19.5,42.5C 19.5,41.5 19.5,40.5 19.5,39.5 Z"/></g>
</svg>
